<?xml version="1.0" encoding="UTF-8"?>
<svg xmlns="http://www.w3.org/2000/svg" xmlns:xlink="http://www.w3.org/1999/xlink" viewBox="0 0 24 24" width="24px" height="24px">
<g id="surface29922066">
<path style=" stroke:none;fill-rule:nonzero;fill:rgb(100%,9.019608%,63.529414%);fill-opacity:1;" d="M 12 2.25 C 6.625 2.25 2.25 6.625 2.25 12 C 2.25 17.375 6.625 21.75 12 21.75 C 17.375 21.75 21.75 17.375 21.75 12 C 21.75 6.625 17.375 2.25 12 2.25 Z M 12 3.75 C 16.566406 3.75 20.25 7.4375 20.25 12 C 20.25 16.566406 16.566406 20.25 12 20.25 C 7.4375 20.25 3.75 16.566406 3.75 12 C 3.75 7.4375 7.4375 3.75 12 3.75 Z M 11.25 7.5 L 11.25 11.25 L 7.5 11.25 L 7.5 12.75 L 11.25 12.75 L 11.25 16.5 L 12.75 16.5 L 12.75 12.75 L 16.5 12.75 L 16.5 11.25 L 12.75 11.25 L 12.75 7.5 Z M 11.25 7.5 "/>
</g>
</svg>
